<?xml version="1.0" standalone="no"?>
<!DOCTYPE svg PUBLIC "-//W3C//DTD SVG 20010904//EN"
 "http://www.w3.org/TR/2001/REC-SVG-20010904/DTD/svg10.dtd">
<svg version="1.0" xmlns="http://www.w3.org/2000/svg"
 width="389.000000pt" height="389.000000pt" viewBox="0 0 389.000000 389.000000"
 preserveAspectRatio="xMidYMid meet">
<metadata>
Created by potrace 1.11, written by Peter Selinger 2001-2013
</metadata>
<g transform="translate(0.000000,389.000000) scale(0.100000,-0.100000)"
fill="#000000" stroke="none">
<path d="M180 3463 c-74 -25 -112 -55 -151 -118 l-24 -40 0 -1035 c0 -958 1
-1037 17 -1065 26 -46 69 -90 108 -111 33 -18 70 -19 675 -24 l640 -5 -2 -30
c-1 -16 -5 -86 -8 -155 -4 -68 -9 -128 -11 -132 -3 -5 2 -11 12 -15 13 -5 684
-8 815 -4 25 1 25 3 19 50 -5 39 -15 59 -46 93 -80 87 -149 208 -188 327 l-21
66 -894 3 c-641 1 -898 5 -908 13 -12 11 -15 206 -14 794 0 11 0 234 0 495 0
261 0 482 0 490 0 8 0 50 1 94 0 43 5 87 11 97 9 19 52 19 1638 19 1346 0
1630 -2 1640 -13 7 -10 11 -175 11 -562 0 -510 1 -549 17 -568 10 -11 33 -36
51 -56 19 -20 56 -70 83 -111 l50 -75 -3 710 c-3 645 -5 713 -20 740 -26 46
-59 80 -103 106 l-40 24 -1670 2 c-919 1 -1677 -1 -1685 -4z"/>
<path d="M1043 3020 c-90 -19 -157 -72 -205 -163 -19 -36 -23 -58 -23 -152 0
-100 2 -114 27 -160 32 -60 77 -105 138 -137 63 -32 183 -33 255 0 108 49 164
137 173 267 6 103 -14 175 -67 243 -67 84 -187 125 -298 102z m122 -180 c16
-6 33 -26 45 -52 36 -80 19 -176 -39 -215 -58 -39 -117 -26 -158 36 -42 62
-26 187 28 225 26 18 84 21 124 6z"/>
<path d="M630 3013 c-37 -13 -40 -33 -40 -245 0 -171 -2 -208 -14 -208 -15 0
-26 21 -26 51 0 30 -42 51 -87 43 -66 -11 -83 -28 -83 -82 0 -57 28 -121 64
-150 88 -69 235 -48 294 41 l27 40 3 241 c3 237 3 241 -18 258 -22 17 -86 23
-120 11z"/>
<path d="M1463 3005 c-23 -16 -23 -17 -23 -299 0 -268 1 -284 19 -301 18 -15
38 -17 178 -13 183 4 223 18 270 90 24 35 28 52 28 112 0 58 -4 77 -23 103
-22 31 -22 34 -8 77 27 80 -7 170 -82 214 -41 23 -56 25 -191 29 -124 4 -149
2 -168 -12z m273 -176 c10 -17 -16 -29 -68 -29 -41 0 -48 3 -48 20 0 18 7 20
54 20 30 0 58 -5 62 -11z m-6 -208 c16 -4 25 -14 25 -26 0 -22 -29 -33 -92
-34 -43 -1 -43 -1 -43 34 0 35 0 35 43 34 23 -1 53 -4 67 -8z"/>
<path d="M2050 3009 c-62 -23 -78 -109 -29 -158 l31 -31 583 0 c399 0 592 3
608 11 58 26 70 111 22 159 l-25 25 -583 2 c-347 1 -592 -2 -607 -8z"/>
<path d="M2050 2584 c-79 -34 -80 -139 -2 -177 22 -11 142 -14 602 -13 644 1
616 -2 640 72 11 32 10 42 -4 69 -33 61 -7 59 -635 60 -414 0 -581 -3 -601
-11z"/>
<path d="M2725 2264 c-256 -61 -448 -216 -560 -448 -111 -232 -105 -484 16
-716 106 -204 298 -356 519 -412 100 -25 262 -29 355 -9 75 17 192 63 246 97
l42 26 156 -155 c86 -85 166 -160 178 -166 31 -16 99 -14 132 4 16 8 40 28 55
45 21 26 26 42 26 86 0 31 -5 65 -11 77 -6 12 -79 90 -161 173 l-150 151 46
94 c154 317 101 669 -138 917 -122 128 -253 201 -422 237 -87 18 -250 18 -329
-1z m260 -244 c210 -31 393 -200 447 -415 50 -195 -12 -400 -164 -540 -267
-248 -704 -169 -867 157 -140 278 -28 613 250 747 115 55 205 69 334 51z"/>
<path d="M445 2150 c-33 -12 -56 -46 -62 -89 -5 -36 -2 -44 26 -70 17 -16 43
-30 58 -32 23 -3 1575 -3 1650 0 13 1 29 14 42 34 21 34 40 56 104 124 l39 41
-919 0 c-505 -1 -928 -4 -938 -8z"/>
<path d="M443 1699 c-38 -14 -65 -60 -60 -102 6 -40 45 -86 75 -88 9 -1 358
-2 774 -3 499 -1 758 2 759 9 0 6 2 19 4 30 1 11 5 41 9 67 3 27 8 58 11 71
l6 23 -779 0 c-429 0 -788 -3 -799 -7z"/>
<path d="M1231 614 c-51 -21 -62 -123 -18 -171 l20 -22 614 -1 614 0 24 24
c21 21 25 35 25 80 0 55 -11 75 -48 95 -9 4 -283 8 -609 8 -453 0 -599 -3
-622 -13z"/>
</g>
</svg>
